<svg xmlns="http://www.w3.org/2000/svg" width="1096" height="927" viewBox="0 0 1096 927"><g id="surface1" fill-rule="evenodd" stroke="none"><path id="path1" fill="red" d="M550.438 437.04c73.066-26.786 148.566-51.138 228.94-19.481-87.679-34.094-170.487 0-253.3 31.656l-14.613 7.305-38.969 12.175c-53.582 14.61-104.726 21.914-160.746-2.437 73.066 24.351 146.133 2.437 219.2-24.348ZM302.008 30.378c160.746 92.535 321.496-97.402 484.676-2.434l24.355 382.309v-2.438 17.047c-172.922-102.273-348.285 92.535-523.644 0 80.375 36.528 158.312 17.047 238.683-4.87l19.485-4.872c75.503-21.914 153.44-43.828 228.945-21.914-165.617-60.879-331.238 112.016-496.856 14.61Zm263.043 73.05c-12.18-9.738-31.664-2.433-43.844 9.743a737.8 737.8 0 0 1-119.34 107.144c-14.613 9.739-19.484 24.352-7.308 36.528 31.664 34.09 65.761 58.441 102.293 82.793 12.18 7.304 36.535 0 51.148-12.176 43.84-43.832 82.809-85.23 121.777-114.45 12.18-9.741 9.743-26.788-2.433-38.96a716 716 0 0 0-102.293-73.055Zm0 0"/><path id="path2" fill="#051039" d="M326.363 829.086c0 73.055-26.789 97.406-116.906 97.406h-92.55C31.663 926.492 0 894.836 0 809.605v-107.14c0-85.23 31.664-116.887 116.906-116.887h92.551c90.117 0 116.906 24.352 116.906 97.406h-73.066c0-26.789-14.613-31.656-48.711-31.656H131.52c-51.145 0-60.887 4.867-60.887 65.746v75.489c0 63.312 9.742 68.18 63.324 68.18h73.066c31.66 0 46.274-4.868 46.274-31.657Zm306.883 97.406L479.805 731.684l-31.664-43.832v233.77h-65.758V585.577h70.629L604.02 777.95l31.66 43.832V585.578h68.195v340.914h-73.066ZM1096 829.086c0 73.055-29.227 97.406-116.906 97.406h-92.551c-85.246 0-116.906-31.656-116.906-116.887v-107.14c0-85.23 31.66-116.887 116.906-116.887h92.55c87.68 0 116.907 24.352 116.907 97.406h-73.066c0-26.789-17.051-31.656-48.711-31.656h-73.067c-53.582 0-60.89 4.867-60.89 65.746v75.489c0 63.312 7.308 68.18 63.324 68.18h70.633c31.66 0 48.71-4.868 48.71-31.657Zm0 0"/></g></svg>