<svg width="73" height="37" viewBox="0 0 73 37" fill="none" xmlns="http://www.w3.org/2000/svg">
<path d="M22.9807 25.4194C23.2658 25.2879 23.6452 25.5258 23.6236 25.8464C23.6236 27.1474 23.6225 28.4484 23.6236 29.75C23.6213 30.1689 23.7249 30.5931 23.9611 30.9434C24.2736 31.4147 24.7821 31.7515 25.3407 31.847C25.9266 31.9587 26.555 31.7952 27.0204 31.424C27.4958 31.0545 27.7867 30.4639 27.796 29.8623C27.8013 28.5014 27.7937 27.1399 27.7995 25.7795C27.8146 25.4293 28.2656 25.2425 28.5402 25.4438C28.6897 25.5439 28.7508 25.7307 28.7438 25.9046C28.7421 27.2231 28.745 28.5421 28.7427 29.8611C28.7404 30.6443 28.4099 31.4187 27.8461 31.9628C27.195 32.608 26.2396 32.9228 25.3319 32.8041C24.2381 32.6819 23.2425 31.9121 22.8678 30.8741C22.6985 30.4418 22.6688 29.9723 22.677 29.5132C22.6787 28.3094 22.6758 27.1055 22.6787 25.9023C22.67 25.6998 22.7852 25.4904 22.9807 25.4194Z" fill="#2D6878"/>
<path d="M18.0436 25.484C19.1701 25.2791 20.3867 25.6323 21.2141 26.4254C21.4468 26.6692 21.3141 27.1387 20.9749 27.2016C20.7428 27.2749 20.5461 27.1096 20.3861 26.9659C19.7292 26.4399 18.8198 26.2438 18.0058 26.4632C17.1668 26.6732 16.4488 27.3057 16.1328 28.111C15.8681 28.7615 15.8704 29.5138 16.1398 30.1625C16.4441 30.9149 17.0958 31.5171 17.8725 31.7545C18.729 32.0343 19.7141 31.8394 20.41 31.2709C20.5286 31.179 20.6363 31.0516 20.794 31.0318C21.0686 30.9725 21.3618 31.211 21.3438 31.495C21.3531 31.623 21.2973 31.7498 21.2059 31.8388C20.4379 32.5673 19.3411 32.9251 18.2915 32.8058C17.5968 32.7343 16.9259 32.4579 16.3819 32.0204C15.601 31.403 15.0849 30.4575 15.0047 29.4638C14.9098 28.5008 15.2188 27.5082 15.8396 26.7669C16.3918 26.0966 17.1877 25.6317 18.0436 25.484Z" fill="#2D6878"/>
<path d="M39.1449 26.1944C39.1391 25.8924 39.2746 25.538 39.5958 25.4572C39.9722 25.3559 40.3051 25.6439 40.5064 25.9296C41.7498 27.7316 42.9903 29.5353 44.2319 31.3384C44.2366 29.6429 44.2336 27.9469 44.2336 26.2514C44.2389 26.078 44.2022 25.8842 44.3122 25.7341C44.4524 25.5154 44.7893 25.4595 44.9906 25.6259C45.1151 25.7172 45.1855 25.8691 45.1791 26.0233C45.1809 27.9242 45.1791 29.8245 45.1797 31.7253C45.1786 31.9703 45.2007 32.2292 45.0913 32.4573C44.9848 32.6825 44.7329 32.8291 44.4833 32.8006C44.165 32.7692 43.9195 32.5283 43.7402 32.2816C42.523 30.5145 41.3093 28.7446 40.0904 26.9781C40.0869 28.755 40.088 30.532 40.0898 32.3089C40.1148 32.5248 39.9792 32.7453 39.7674 32.8052C39.4788 32.914 39.142 32.672 39.146 32.3659C39.1402 30.3091 39.1431 28.2518 39.1449 26.1944Z" fill="#6AA045"/>
<path d="M30.4161 25.5701C30.6278 25.3903 30.9938 25.4508 31.1282 25.6975C31.2109 25.8284 31.1841 25.989 31.1882 26.1362C31.1864 28.0516 31.1887 29.9676 31.187 31.8836C32.4001 31.8865 33.6133 31.8831 34.8258 31.8854C35.0719 31.8825 35.282 32.114 35.2709 32.3578C35.2738 32.6202 35.0347 32.8454 34.7723 32.8291C33.2624 32.8315 31.752 32.8303 30.2415 32.8297C30.2421 30.5599 30.2427 28.2896 30.2415 26.0198C30.2339 25.8546 30.2805 25.6748 30.4161 25.5701Z" fill="#6AA045"/>
<path d="M36.8782 25.5113C37.1598 25.3658 37.5636 25.5747 37.5572 25.904C37.5589 28.0597 37.5566 30.2155 37.5583 32.3706C37.5781 32.6807 37.2145 32.914 36.9346 32.8006C36.7275 32.7389 36.6047 32.519 36.6134 32.3107C36.6105 30.2149 36.6134 28.1185 36.6123 26.0227C36.5983 25.8185 36.6879 25.6038 36.8782 25.5113Z" fill="#6AA045"/>
<path d="M46.6244 26.0832C46.6203 25.7702 46.9118 25.527 47.2167 25.5433C48.6323 25.541 50.0479 25.5445 51.4635 25.5421C51.7248 25.5224 51.9674 25.7597 51.9511 26.0222C51.9593 26.277 51.7248 26.5028 51.4711 26.4882C50.1695 26.4888 48.8674 26.4876 47.5658 26.4882C47.5658 27.2446 47.5658 28.001 47.5658 28.7574C48.6917 28.7603 49.8175 28.7516 50.9428 28.7615C51.2477 28.7615 51.4694 29.0873 51.3792 29.3741C51.3245 29.5609 51.1424 29.7145 50.9422 29.7029C49.8169 29.7029 48.6917 29.7029 47.5664 29.7029C47.5652 30.4302 47.5652 31.1575 47.5664 31.8848C48.8842 31.8848 50.2027 31.8836 51.5206 31.8854C51.7865 31.8877 51.9924 32.1664 51.9482 32.4224C51.9209 32.654 51.7027 32.8361 51.4705 32.8285C50.0927 32.8332 48.7144 32.828 47.336 32.8309C47.1317 32.8338 46.9008 32.8018 46.764 32.6324C46.6139 32.4649 46.6215 32.2275 46.6191 32.0174C46.6232 30.0392 46.6139 28.0609 46.6244 26.0832Z" fill="#6AA045"/>
<path d="M55.2588 25.5736C56.0199 25.4595 56.8246 25.559 57.5158 25.9052C57.8195 26.0402 57.7672 26.4364 57.7183 26.7029C57.6909 26.86 57.5013 26.8385 57.3977 26.7757C56.9642 26.5534 56.5034 26.3527 56.01 26.3305C55.5963 26.3055 55.1431 26.3614 54.8149 26.6372C54.4664 26.9252 54.4123 27.4989 54.7026 27.8457C54.9767 28.1802 55.3868 28.3577 55.7761 28.5206C56.4685 28.822 57.2418 29.0378 57.7753 29.6028C58.1244 29.9618 58.2664 30.4843 58.1954 30.9754C58.1436 31.5834 57.7375 32.1146 57.2179 32.4119C56.6745 32.7232 56.0379 32.8245 55.4194 32.8303C54.8254 32.8192 54.2249 32.718 53.6797 32.4759C53.5168 32.3933 53.3172 32.3206 53.2433 32.1379C53.1799 31.9377 53.1811 31.7149 53.248 31.5165C53.3283 31.3466 53.5389 31.4269 53.6617 31.5019C54.3494 31.8929 55.1623 32.1007 55.9512 31.9674C56.2939 31.8993 56.6477 31.7556 56.863 31.4676C57.1266 31.1179 57.1492 30.5722 56.8397 30.2428C56.483 29.8501 55.9611 29.6849 55.4858 29.487C54.8737 29.2363 54.2191 28.989 53.7804 28.47C53.3266 27.9481 53.2823 27.1393 53.6134 26.5441C53.9485 25.9599 54.6171 25.6661 55.2588 25.5736Z" fill="#6AA045"/>
<path d="M32.6754 4.27703C34.0788 3.76326 35.7324 4.07455 36.8669 5.04331C36.6173 5.24172 36.3875 5.46515 36.1885 5.71476C35.4822 5.15444 34.5466 4.87807 33.6511 5.01015C32.7306 5.13524 31.8718 5.66646 31.3575 6.44089C30.8763 7.14492 30.6913 8.03805 30.8397 8.87648C30.8955 9.19824 31.0026 9.50894 31.1515 9.79928C31.5059 10.4992 32.1185 11.0607 32.8435 11.3604C33.078 11.4348 33.2194 11.7071 33.1426 11.9416C33.0809 12.2064 32.7714 12.3466 32.5241 12.2541C31.4808 11.8468 30.6203 11.0049 30.1839 9.975C30.06 9.68291 29.9657 9.37861 29.9099 9.06616C29.7662 8.24286 29.8558 7.37708 30.188 6.60846C30.6442 5.52973 31.5699 4.66279 32.6754 4.27703Z" fill="#2D6878"/>
<path d="M36.8428 6.42344C37.0371 6.1651 37.2669 5.93469 37.5247 5.73978C38.2095 6.67189 38.5202 7.88386 38.3014 9.02543C38.2549 9.2797 37.9698 9.44087 37.7248 9.37221C37.4735 9.32101 37.3193 9.04172 37.3804 8.79793C37.5206 7.97405 37.3065 7.11292 36.8428 6.42344Z" fill="#2D6878"/>
<path d="M39.4477 9.87199C40.3484 9.07719 41.6069 8.73158 42.7922 8.88926C43.104 8.94977 43.4141 9.02308 43.715 9.12723C44.5697 9.43386 45.3075 10.043 45.8009 10.8029C46.3315 11.614 46.5666 12.6119 46.4589 13.5742C46.314 15.2168 45.1067 16.7016 43.5282 17.1799C43.4665 16.871 43.3763 16.5678 43.257 16.2763C44.0833 15.9714 44.8053 15.3675 45.1853 14.5657C45.5169 13.8844 45.6187 13.0884 45.4279 12.3518C45.1864 11.3243 44.4184 10.4492 43.4427 10.0535C43.1459 9.92319 42.8265 9.84464 42.5018 9.83009C41.6855 9.75969 40.8447 9.99941 40.1995 10.5068C40.0441 10.6505 39.8149 10.7453 39.6095 10.6505C39.2988 10.5399 39.2092 10.0983 39.4477 9.87199Z" fill="#2D6878"/>
<path d="M32.0324 14.0351C32.2407 13.9379 32.4735 13.7983 32.7091 13.8908C32.9686 13.9804 33.0879 14.3208 32.9523 14.557C32.872 14.7316 32.6736 14.7833 32.5148 14.8601C31.823 15.1738 31.2691 15.7492 30.9357 16.427C30.6139 16.3968 30.2968 16.3217 29.9966 16.2025C30.3922 15.2703 31.1195 14.4785 32.0324 14.0351Z" fill="#2D6878"/>
<path d="M39.517 15.8213C39.6706 15.6084 40.0075 15.5921 40.2018 15.7585C40.7924 16.2135 41.5383 16.4585 42.2842 16.4393C42.4384 16.7313 42.5466 17.0467 42.6013 17.3719C41.5313 17.4656 40.4281 17.1561 39.5868 16.4841C39.3884 16.331 39.3587 16.0128 39.517 15.8213Z" fill="#2D6878"/>
<path d="M37.4453 16.8384C37.6955 16.6947 38.0621 16.839 38.1249 17.1264C38.3489 18.3168 38.0103 19.5922 37.251 20.5325C37.0479 20.7792 36.8198 21.0049 36.5714 21.2051C35.8156 21.7974 34.8549 22.1314 33.8937 22.111C32.893 22.1221 31.9021 21.7375 31.1457 21.0876C30.0175 20.1333 29.4712 18.5688 29.7289 17.1171C30.0257 17.2288 30.3352 17.305 30.6494 17.3486C30.5406 18.1114 30.6907 18.9103 31.0945 19.569C31.667 20.5371 32.7667 21.1725 33.8937 21.1667C34.617 21.1818 35.3379 20.9392 35.9168 20.508C36.174 20.3149 36.4032 20.085 36.5947 19.8261C37.1137 19.125 37.3446 18.2156 37.2067 17.3527C37.1649 17.1531 37.2597 16.9303 37.4453 16.8384Z" fill="#2D6878"/>
<path d="M36.8678 5.04329C37.4816 4.56211 38.2293 4.2514 39.0043 4.16122C39.9434 4.04601 40.9203 4.25373 41.7268 4.74946C42.5687 5.25799 43.2227 6.06966 43.5386 7.00177C43.7754 7.68136 43.8266 8.41855 43.7143 9.12723C43.4135 9.02308 43.1034 8.94977 42.7915 8.88926C42.9213 8.00835 42.6833 7.07915 42.1375 6.37512C41.6249 5.69844 40.8394 5.23937 40.0016 5.11369C39.1364 4.9787 38.2246 5.2161 37.5253 5.73975C37.2675 5.93467 37.0377 6.16508 36.8434 6.42342C36.347 7.09893 36.1062 7.96704 36.2214 8.80082C36.2318 8.92999 36.2551 9.0673 36.201 9.19007C36.1062 9.41641 35.8106 9.53394 35.5877 9.42921C35.4231 9.36928 35.3137 9.20869 35.2957 9.03763C35.1106 7.86987 35.4452 6.63346 36.1894 5.71473C36.3884 5.46512 36.6182 5.2417 36.8678 5.04329Z" fill="#6AA045"/>
<path d="M30.8408 8.87647C31.9114 8.77872 33.0204 9.09408 33.86 9.77018C34.0631 9.92902 34.0817 10.2595 33.9089 10.4474C33.746 10.6371 33.4364 10.6587 33.2467 10.4957C32.6533 10.0326 31.9027 9.79869 31.1527 9.79927C31.0037 9.50893 30.8967 9.19823 30.8408 8.87647Z" fill="#6AA045"/>
<path d="M27.047 12.2861C27.3275 10.7983 28.4708 9.52522 29.9103 9.06614C29.9661 9.37859 30.0604 9.6829 30.1843 9.97498C29.311 10.2688 28.5714 10.9362 28.1991 11.7793C27.8471 12.5589 27.8162 13.4777 28.1199 14.2783C28.4394 15.1452 29.1393 15.858 29.9958 16.2024C30.296 16.3217 30.6131 16.3968 30.9349 16.427C31.7756 16.5027 32.6414 16.2426 33.2972 15.7102C33.4502 15.5705 33.687 15.517 33.872 15.6258C34.1484 15.7596 34.1996 16.1826 33.9727 16.3845C33.0702 17.1619 31.8268 17.5092 30.6498 17.3487C30.3356 17.305 30.0261 17.2288 29.7293 17.1171C28.7227 16.7412 27.8715 15.9697 27.4002 15.0038C26.9854 14.1701 26.8655 13.1984 27.047 12.2861Z" fill="#6AA045"/>
<path d="M42.5015 9.83011C42.8262 9.84466 43.1456 9.9232 43.4424 10.0535C42.9967 11.0968 42.1315 11.9637 41.0644 12.3611C40.8706 12.4362 40.6327 12.3605 40.5174 12.1883C40.3406 11.9451 40.4604 11.5611 40.7479 11.4674C41.5136 11.1683 42.1396 10.5644 42.5015 9.83011Z" fill="#6AA045"/>
<path d="M40.343 14.6792C40.1894 14.4377 40.3186 14.0758 40.5938 13.9914C40.8056 13.9076 41.0168 14.0316 41.2047 14.1194C42.1176 14.5622 42.8624 15.3407 43.2574 16.2763C43.3767 16.5678 43.4669 16.871 43.5286 17.1799C43.7229 18.2237 43.5082 19.3374 42.9397 20.234C42.4266 21.0591 41.6166 21.6874 40.6967 21.9958C39.3079 22.4723 37.688 22.1599 36.5732 21.2051C36.8217 21.0049 37.0498 20.7792 37.2528 20.5325C37.9382 21.0812 38.8418 21.3511 39.7158 21.2476C40.5996 21.1481 41.4357 20.675 41.9704 19.9629C42.529 19.2373 42.7646 18.2738 42.6023 17.3719C42.5476 17.0467 42.4394 16.7313 42.2852 16.4392C41.9332 15.762 41.3449 15.2046 40.6397 14.9084C40.5234 14.8595 40.4006 14.799 40.343 14.6792Z" fill="#6AA045"/>
<path d="M35.134 17.2416C35.173 16.9455 35.5366 16.7715 35.7979 16.9041C36.0114 16.9932 36.1091 17.2469 36.0574 17.465C35.9171 18.2849 36.1394 19.1384 36.595 19.8262C36.4036 20.0851 36.1743 20.3149 35.9171 20.5081C35.2294 19.5847 34.9245 18.3774 35.134 17.2416Z" fill="#6AA045"/>
</svg>
