<svg width="73" height="37" viewBox="0 0 73 37" fill="none" xmlns="http://www.w3.org/2000/svg">
<path d="M4.64649 10.0453C5.04364 9.39762 6.01189 9.18318 6.64208 9.60221C7.05016 9.90198 6.79196 10.4414 6.7854 10.8516C6.9145 10.9009 7.04797 10.9348 7.18473 10.9545C9.40897 10.9413 11.6934 10.7313 13.8596 11.3615C14.4329 11.5475 15.0073 11.7521 15.6112 11.8166C18.0291 12.1394 20.4055 10.9403 22.8146 11.4971C23.2468 11.5518 23.575 11.9129 23.6461 12.333C24.0028 13.9807 24.7139 15.5517 25.7511 16.8843C26.3736 17.6458 26.7215 18.5922 26.9119 19.5484C27.1077 20.439 27.0946 21.3645 27.3561 22.242C27.4885 22.7551 27.7029 23.2409 27.8933 23.7343C27.8583 23.7934 27.7871 23.9104 27.751 23.9695C27.1941 23.9225 26.6581 23.7507 26.1034 23.6883C24.4634 23.4422 22.7424 23.533 21.1976 24.1719C20.2337 24.5909 19.156 24.6774 18.1199 24.5691C16.4329 24.3962 14.7951 23.8896 13.1004 23.7802C12.3236 23.7244 11.549 23.9192 10.8389 24.2233C10.6934 24.2846 10.5742 24.4367 10.6092 24.603C10.6967 25.4924 11.0774 26.3404 11.0446 27.2441C10.7317 27.511 10.3017 27.4596 9.9199 27.4771C9.54573 27.4727 9.15734 27.4946 8.79739 27.371C8.40353 27.1992 8.35867 26.7156 8.26896 26.3491C7.78866 23.6325 7.10268 20.9575 6.60707 18.2443C6.27228 16.2334 5.74385 14.2608 5.44079 12.2444C5.37186 11.7444 5.10053 11.3057 4.76794 10.9381C4.53162 10.7083 4.4802 10.3298 4.64649 10.0453ZM5.45501 10.2597C5.46923 10.3341 5.49768 10.4818 5.5119 10.5562C5.79855 10.6263 6.12568 10.4315 6.03815 10.111C5.82152 10.0409 5.61256 10.0967 5.45501 10.2597ZM6.03596 13.0201C6.92216 16.9904 7.79304 20.9652 8.71424 24.9279C8.851 25.4804 8.8882 26.0625 9.13436 26.5832C9.48665 26.755 10.0468 26.7014 10.1573 26.2583C10.2044 25.8415 10.0009 25.4553 9.9013 25.0614C9.37834 23.0833 8.87397 21.0998 8.28208 19.1414C7.55015 16.8734 6.99546 14.5529 6.50094 12.2225C6.46484 11.9577 6.3051 11.7313 6.08082 11.5912C5.80949 12.0124 5.98563 12.5562 6.03596 13.0201ZM7.27554 13.2006C7.10377 13.7367 7.39808 14.2454 7.5589 14.7421C8.34445 17.1174 9.05121 19.5199 9.61466 21.9575C9.66827 22.1544 9.75579 22.5188 10.0304 22.3262C10.0982 22.0658 10.1518 21.7912 10.0917 21.5243C9.76564 19.8471 9.58731 18.1348 9.08841 16.4959C8.76347 15.3165 8.14423 14.2509 7.50858 13.2181C7.4495 13.2137 7.33353 13.205 7.27554 13.2006ZM11.8159 14.1623C12.3411 16.5988 12.8465 19.0385 13.3804 21.4728C14.4844 21.451 15.5883 21.4816 16.6922 21.4564C16.5576 20.7092 16.3497 19.9718 16.2721 19.2158C17.2699 19.9269 18.1878 20.7453 19.179 21.4674C20.5269 21.4564 21.8737 21.4794 23.2205 21.4575C22.5192 20.7781 21.7982 20.1184 21.0685 19.4685C20.2567 18.6545 19.3475 17.9434 18.551 17.1141C19.3945 16.4369 20.2337 15.7542 21.0706 15.0693C21.4197 14.7892 21.7916 14.531 22.0783 14.182C20.8639 14.1535 19.6484 14.1787 18.4339 14.1678C17.5259 14.8625 16.6233 15.5616 15.7174 16.2574C15.4351 15.5616 15.166 14.8603 14.8979 14.159C13.8706 14.1634 12.8433 14.159 11.8159 14.1623Z" fill="#27539D"/>
<path d="M60.5601 15.0604C62.112 14.3925 63.9554 14.447 65.4624 15.2141C66.3064 15.6337 66.9871 16.3096 67.5492 17.0559C67.0223 17.0847 66.5754 17.0559 66.0938 17.0559C65.545 16.4937 64.6216 16.0421 63.8 15.8756C62.0864 15.5328 60.3151 17.4291 60.9525 19.1139C61.3432 20.0524 62.4195 20.5329 63.3868 20.5713C64.8058 20.5713 66.0938 19.9879 66.9551 19.5591C67.0544 19.8842 67.1472 20.211 67.2225 20.5425C65.5169 21.7548 63.3472 22.6314 61.2332 22.2502C60.1153 22.0324 58.9137 21.6684 58.1706 20.7283C57.7077 20.1229 57.5492 19.3093 57.7109 18.5694C58.0393 17.0431 59.0979 15.653 60.5601 15.0604Z" fill="black"/>
<path d="M36.0941 15.1517C37.0935 15.1293 38.0993 15.1133 39.0986 15.1677C37.7918 16.111 36.4737 17.0415 35.1364 17.9416C36.1438 19.3141 37.1207 20.7106 38.0752 22.1184C37.0999 22.1248 36.1246 22.096 35.1508 22.1328C34.318 21.0181 33.5301 19.8714 32.7309 18.7343C32.4778 19.857 32.3289 21.0005 32.0791 22.1248C31.0381 22.1088 29.9971 22.1104 28.9561 22.1248C29.342 19.7882 29.8657 17.4739 30.2517 15.1373C31.2911 15.1325 32.3305 15.1421 33.3715 15.1293C33.2834 15.9364 33.0176 16.7228 33.0304 17.5396C33.4804 17.0127 34.0954 16.6716 34.6239 16.2327C35.122 15.8836 35.5592 15.4464 36.0941 15.1517Z" fill="black"/>
<path d="M39.923 15.0956C40.6805 15.102 41.4381 15.0924 42.1956 15.1084C42.5439 16.0936 42.953 16.9728 43.3631 17.9015C44.1607 17.0159 44.8782 16.0598 45.6101 15.1196C46.6431 15.0764 47.6777 15.1004 48.7107 15.1052C48.3279 17.4483 47.9515 19.7913 47.5832 22.136C46.5694 22.1376 45.5572 22.1296 44.5451 22.1424C44.7586 20.8621 44.9581 19.6555 45.1616 18.4284C44.1975 19.4887 43.3103 20.6177 42.391 21.7164C42.3509 21.7084 42.2709 21.694 42.2308 21.686C41.969 21.0225 40.8967 18.5614 40.8967 18.5614C40.8967 18.5614 40.4627 20.8836 40.2705 22.0479C39.7308 22.0719 39.1911 22.0719 38.6514 22.0543C39.0774 19.7337 39.4842 17.4115 39.923 15.0956Z" fill="black"/>
<path d="M49.165 16.7804C49.1971 16.2327 49.2339 15.6849 49.2691 15.1372C52.208 15.1292 55.1452 15.15 58.0824 15.126C58.0008 15.717 57.8742 16.2999 57.7573 16.8845C56.838 16.8733 55.9171 16.8829 54.9979 16.8781C54.6968 18.6414 54.3653 20.3999 54.0658 22.1648C53.0152 22.1632 51.9645 22.1632 50.9123 22.1648C51.215 20.3903 51.601 18.6286 51.8781 16.8493C50.9732 16.8541 50.0699 16.7804 49.165 16.7804Z" fill="black"/>
</svg>
